<svg width="20" height="20" viewBox="0 0 20 20" fill="none" xmlns="http://www.w3.org/2000/svg">
<path fill-rule="evenodd" clip-rule="evenodd" d="M10 1.875C7.97583 1.875 5.98583 2.02334 4.04 2.30917C2.39167 2.55084 1.25 3.99584 1.25 5.6175V10.6325C1.25 12.2542 2.39167 13.6992 4.04 13.9408C4.77083 14.0483 5.5075 14.1358 6.25 14.2042V17.5C6.25011 17.6235 6.28682 17.7443 6.35551 17.8469C6.42419 17.9496 6.52176 18.0296 6.6359 18.0769C6.75003 18.1242 6.87561 18.1365 6.99678 18.1125C7.11795 18.0884 7.22926 18.029 7.31667 17.9417L10.8033 14.4558C10.8626 14.3975 10.9419 14.3641 11.025 14.3625C12.6967 14.3208 14.3433 14.1792 15.96 13.9408C17.6083 13.6992 18.75 12.255 18.75 10.6325V5.6175C18.75 3.995 17.6083 2.55084 15.96 2.30917C13.9866 2.0195 11.9946 1.8744 10 1.875ZM6.875 7.1875C6.62636 7.1875 6.3879 7.28627 6.21209 7.46209C6.03627 7.6379 5.9375 7.87636 5.9375 8.125C5.9375 8.37364 6.03627 8.6121 6.21209 8.78791C6.3879 8.96373 6.62636 9.0625 6.875 9.0625C7.12364 9.0625 7.3621 8.96373 7.53791 8.78791C7.71373 8.6121 7.8125 8.37364 7.8125 8.125C7.8125 7.87636 7.71373 7.6379 7.53791 7.46209C7.3621 7.28627 7.12364 7.1875 6.875 7.1875ZM9.0625 8.125C9.0625 7.87636 9.16127 7.6379 9.33709 7.46209C9.5129 7.28627 9.75136 7.1875 10 7.1875C10.2486 7.1875 10.4871 7.28627 10.6629 7.46209C10.8387 7.6379 10.9375 7.87636 10.9375 8.125C10.9375 8.37364 10.8387 8.6121 10.6629 8.78791C10.4871 8.96373 10.2486 9.0625 10 9.0625C9.75136 9.0625 9.5129 8.96373 9.33709 8.78791C9.16127 8.6121 9.0625 8.37364 9.0625 8.125ZM13.125 7.1875C12.8764 7.1875 12.6379 7.28627 12.4621 7.46209C12.2863 7.6379 12.1875 7.87636 12.1875 8.125C12.1875 8.37364 12.2863 8.6121 12.4621 8.78791C12.6379 8.96373 12.8764 9.0625 13.125 9.0625C13.3736 9.0625 13.6121 8.96373 13.7879 8.78791C13.9637 8.6121 14.0625 8.37364 14.0625 8.125C14.0625 7.87636 13.9637 7.6379 13.7879 7.46209C13.6121 7.28627 13.3736 7.1875 13.125 7.1875Z" fill="#536485"/>
</svg>
